# Blender 4.5.1 LTS
# www.blender.org
mtllib asteroid.mtl
o rock
v 0.423903 0.332440 -0.002731
v 0.206894 -0.121197 0.158350
v 0.462489 -0.270182 -0.040015
v 0.155614 -0.100571 -0.224484
v -0.273396 -0.185115 -0.295913
v -0.219047 0.190343 -0.239440
v -0.368967 0.292078 -0.028128
v -0.317350 -0.276394 0.070166
v -0.268389 -0.152384 0.387314
v -0.227522 0.247731 0.451861
v 0.289002 0.007328 0.005452
v 0.256377 0.024175 0.140107
v 0.283884 -0.230796 0.161990
v 0.261086 0.032445 -0.213758
v 0.293779 -0.297835 -0.234546
v -0.094158 0.301111 -0.026802
v 0.066361 0.348053 -0.300661
v -0.432918 0.338432 -0.124151
v 0.144965 0.438322 0.436598
v -0.506394 0.391557 0.186710
v 0.081423 -0.171051 0.343736
v -0.162298 0.017332 0.143299
v -0.025053 -0.131478 -0.209161
v -0.382094 0.007676 -0.470368
v -0.005279 -0.434359 -0.022483
v -0.283228 -0.211886 0.163354
v -0.282178 -0.261146 -0.127845
v -0.387452 0.000909 0.015573
v 0.333353 0.009783 0.090143
v 0.463824 -0.052764 -0.173577
v -0.115737 0.292443 -0.036331
v -0.093797 0.367046 0.055079
v 0.076627 0.060873 0.426543
v 0.015221 0.003012 -0.180551
v -0.000788 -0.364973 0.180493
v -0.036353 -0.227948 -0.154684
v -0.328459 0.010289 -0.104566
v -0.211440 0.015408 0.146505
v 0.314566 0.084818 0.010249
v 0.398954 -0.071418 0.010335
v 0.318122 0.086968 0.146578
v 0.295334 -0.042516 0.236354
v 0.222447 -0.157728 0.156299
v 0.355339 -0.266288 0.067378
v 0.325712 0.105115 -0.143945
v 0.203641 -0.043044 -0.205869
v 0.411454 -0.370815 -0.151024
v 0.213956 -0.184056 -0.239547
v 0.079175 0.543020 0.023847
v -0.146198 0.268787 -0.028282
v 0.209207 0.390949 -0.243870
v -0.090913 0.274884 -0.281257
v -0.294125 0.246844 -0.197755
v -0.362660 0.288079 -0.056522
v 0.192750 0.311674 0.197957
v -0.027570 0.345471 0.425675
v -0.455289 0.342708 0.029313
v -0.412472 0.340078 0.356742
v 0.121484 -0.122117 0.150218
v -0.093680 -0.229555 0.529632
v -0.169156 -0.052028 0.219945
v -0.201488 0.058837 0.225996
v 0.070736 -0.105244 -0.267551
v -0.103473 -0.143455 -0.175574
v -0.330039 -0.099754 -0.376939
v -0.305594 0.122013 -0.364300
v 0.194921 -0.427070 -0.040448
v -0.134824 -0.307533 0.020528
v -0.266797 -0.221624 0.110946
v -0.277034 -0.211154 0.248665
v -0.282201 -0.254588 -0.224030
v -0.318127 -0.305518 -0.058550
v -0.439031 0.087646 -0.007901
v -0.444583 -0.117556 0.062082
v 0.297956 0.012577 0.110980
v 0.407821 -0.112750 0.119100
v 0.285702 -0.012053 0.072566
v 0.368152 -0.018465 -0.058777
v 0.406057 -0.166513 -0.189555
v 0.377989 -0.005118 -0.178932
v -0.078570 0.321122 -0.101319
v -0.151804 0.264213 -0.084057
v -0.111466 0.289845 -0.045490
v -0.092739 0.332671 0.011090
v -0.154412 0.370789 0.098335
v -0.024833 0.439797 0.139104
v 0.097706 0.144048 0.383284
v -0.110591 0.024882 0.243423
v 0.066912 -0.045958 0.429462
v 0.155971 0.031314 0.195835
v 0.091724 0.005130 -0.124271
v 0.022331 -0.062290 -0.246391
v -0.063858 0.007021 -0.340256
v 0.066555 0.119907 -0.312241
v 0.074143 -0.305535 0.311174
v -0.188644 -0.341499 0.182527
v -0.002503 -0.456980 0.100429
v 0.138964 -0.234664 0.148341
v -0.003610 -0.289941 -0.083100
v -0.106148 -0.162311 -0.123260
v -0.054134 -0.181432 -0.191530
v 0.098593 -0.248050 -0.147792
v -0.461903 -0.094093 -0.093012
v -0.346054 0.007302 -0.066103
v -0.383630 0.085731 -0.117114
v -0.365193 0.015769 -0.164628
v -0.350463 0.001220 0.144092
v -0.270187 -0.084618 0.134666
v -0.167929 0.015817 0.147072
v -0.291189 0.079640 0.143518
v 0.283320 0.031087 0.082814
v 0.369617 -0.072926 0.185443
v 0.394734 -0.098282 0.059297
v 0.356142 0.053197 -0.062426
v 0.493606 -0.148076 -0.115356
v 0.296311 -0.105207 -0.206902
v 0.002662 0.406635 -0.079823
v -0.145752 0.308657 -0.150237
v -0.145883 0.267706 -0.044152
v 0.044632 0.482495 0.110107
v -0.152177 0.341839 -0.029235
v -0.118828 0.468431 0.222012
v 0.179198 0.100377 0.164122
v -0.075061 0.101745 0.267809
v -0.104293 -0.023823 0.395274
v 0.146914 -0.059743 0.224474
v 0.182822 0.125410 -0.263347
v 0.078180 -0.032570 -0.168295
v -0.087996 -0.080874 -0.266715
v -0.043837 0.113648 -0.400755
v 0.122547 -0.152339 0.151566
v -0.145003 -0.337567 0.308867
v -0.144053 -0.317381 0.088756
v 0.170027 -0.344023 0.083586
v 0.132445 -0.308650 -0.097293
v -0.116039 -0.241166 -0.099889
v -0.109810 -0.140996 -0.138210
v 0.096413 -0.226605 -0.248480
v -0.493332 -0.089594 -0.180092
v -0.473217 -0.108452 -0.013977
v -0.410604 0.085505 -0.071394
v -0.403830 0.106044 -0.191754
v -0.460181 0.063045 0.095003
v -0.400606 -0.120000 0.125466
v -0.239742 -0.047588 0.191496
v -0.246027 0.057286 0.198399
vn 0.8931 0.4473 0.0483
vn -0.0086 -0.5069 0.8620
vn 0.8282 -0.4372 0.3507
vn 0.1301 0.3663 -0.9214
vn 0.0525 -0.7894 -0.6116
vn -0.3590 0.7175 -0.5969
vn -0.5094 0.5030 -0.6983
vn -0.4352 -0.8439 0.3137
vn -0.8413 0.1817 0.5091
vn -0.2001 -0.2049 0.9581
vn 0.8803 0.2348 0.4123
vn 0.5185 0.3357 0.7864
vn 0.3310 -0.4614 0.8232
vn 0.2015 0.0533 -0.9780
vn 0.0338 -0.5479 -0.8359
vn -0.5081 0.7113 -0.4857
vn -0.0496 0.6466 -0.7612
vn -0.6549 0.7494 -0.0974
vn 0.4117 0.6754 0.6118
vn -0.7635 0.6226 0.1714
vn 0.8066 -0.2635 0.5291
vn -0.5958 -0.1118 0.7953
vn -0.2364 -0.4006 -0.8852
vn -0.5085 -0.0281 -0.8606
vn -0.2523 -0.8856 -0.3900
vn -0.8868 -0.3460 0.3064
vn -0.1559 -0.8708 -0.4663
vn -0.9956 -0.0894 -0.0273
vn 0.6866 0.6911 -0.2258
vn 0.7851 0.3702 -0.4966
vn -0.6214 0.7625 0.1799
vn -0.2450 0.8717 -0.4244
vn 0.2694 0.3752 0.8870
vn 0.6302 -0.2171 -0.7455
vn 0.1937 -0.8762 0.4414
vn -0.3723 -0.7259 -0.5784
vn -0.9889 0.1467 0.0226
vn -0.5746 -0.1781 0.7988
vn 0.9433 -0.2886 0.1638
vn 0.7619 0.5369 0.3624
vn 0.7790 -0.2110 0.5905
vn 0.3029 0.1834 0.9352
vn 0.0330 -0.2157 0.9759
vn 0.5935 -0.5508 0.5868
vn 0.8179 0.0415 -0.5738
vn -0.0452 0.3577 -0.9327
vn 0.3780 -0.7858 -0.4895
vn 0.1030 -0.0979 -0.9899
vn -0.0142 0.9979 0.0629
vn -0.1263 0.8571 -0.4994
vn 0.3119 0.6284 -0.7126
vn -0.2133 0.7430 -0.6345
vn -0.3871 0.7360 -0.5553
vn -0.4778 0.8705 0.1184
vn 0.7564 0.3852 0.5287
vn -0.1408 0.3273 0.9344
vn -0.7259 0.6254 -0.2863
vn -0.7522 0.3280 0.5715
vn 0.5439 -0.3640 0.7561
vn -0.1269 -0.3127 0.9413
vn -0.6481 0.6428 0.4084
vn -0.2651 -0.7453 0.6118
vn -0.0539 0.2505 -0.9666
vn 0.1291 -0.7125 -0.6897
vn -0.2854 -0.5564 -0.7804
vn -0.4730 0.5104 -0.7182
vn 0.2504 -0.9656 -0.0702
vn -0.3871 -0.9015 -0.1935
vn -0.5855 -0.7053 0.3998
vn -0.9324 -0.2138 0.2914
vn -0.0415 -0.9502 -0.3088
vn -0.3731 -0.8796 -0.2950
vn -0.8790 -0.2654 -0.3962
vn -0.9294 -0.0690 0.3626
vn 0.7886 0.6003 0.1333
vn 0.8829 0.0192 0.4691
vn 0.8139 0.5649 -0.1363
vn 0.7975 0.5363 0.2763
vn 0.5243 0.0525 -0.8499
vn 0.6128 0.4337 -0.6606
vn -0.5252 0.8488 -0.0612
vn -0.1908 0.9691 0.1565
vn -0.6424 0.7664 0.0023
vn -0.3365 0.8436 -0.4184
vn -0.1220 0.9418 -0.3131
vn -0.1587 0.9596 -0.2325
vn 0.4428 -0.1522 0.8836
vn -0.7355 0.1792 0.6534
vn 0.5638 0.2318 0.7927
vn 0.6881 0.1704 0.7054
vn 0.1402 -0.0675 -0.9878
vn 0.3554 0.0676 -0.9323
vn 0.4959 -0.3738 -0.7838
vn 0.4415 -0.3329 -0.8332
vn 0.6297 -0.6857 0.3651
vn -0.5371 -0.8393 0.0844
vn -0.1060 -0.9450 0.3095
vn 0.4861 -0.4937 0.7211
vn -0.2762 -0.5945 -0.7552
vn -0.1344 -0.8161 -0.5621
vn -0.5538 -0.5455 -0.6291
vn -0.2200 -0.7889 -0.5738
vn -0.9934 0.1118 -0.0265
vn -0.9546 0.1014 -0.2800
vn -0.9436 -0.3252 -0.0630
vn -0.9669 0.2282 0.1139
vn -0.4388 -0.0280 0.8982
vn -0.5864 0.0842 0.8056
vn -0.4474 -0.1107 0.8874
vn -0.6249 -0.3704 0.6872
vn 0.9890 -0.1476 0.0044
vn 0.5623 0.2378 0.7920
vn 0.9328 0.2827 0.2236
vn 0.9724 0.1497 0.1787
vn 0.9923 0.1032 -0.0684
vn 0.1746 0.1168 -0.9777
vn -0.4122 0.8599 -0.3010
vn -0.3012 0.9222 -0.2425
vn -0.2653 0.9598 0.0919
vn -0.0215 0.9847 0.1727
vn 0.0562 0.7156 -0.6962
vn -0.1922 0.9709 0.1430
vn 0.6869 -0.0387 0.7257
vn -0.2698 -0.3179 0.9089
vn -0.3703 0.6072 0.7030
vn 0.6973 -0.2358 0.6769
vn 0.4267 -0.2947 -0.8550
vn 0.1222 0.6225 -0.7730
vn 0.3832 -0.5625 -0.7327
vn 0.2307 0.1558 -0.9605
vn 0.6173 -0.1438 0.7735
vn -0.2487 -0.8837 0.3965
vn -0.5430 -0.8358 0.0809
vn 0.3711 -0.7176 0.5894
vn -0.1462 -0.7630 -0.6296
vn -0.1547 -0.7216 -0.6748
vn 0.0377 -0.8578 -0.5126
vn -0.1847 -0.5216 -0.8330
vn -0.9850 -0.1537 -0.0780
vn -0.9928 0.0359 -0.1142
vn -0.9337 -0.2756 -0.2285
vn -0.9037 0.2251 -0.3641
vn -0.8779 -0.4379 0.1937
vn -0.6020 -0.1117 0.7906
vn -0.7004 0.5902 0.4014
vn -0.4879 -0.7652 0.4201
s 1
f 1//1 41//41 111//111 39//39
f 41//41 12//12 75//75 111//111
f 111//111 75//75 29//29 77//77
f 39//39 111//111 77//77 11//11
f 2//2 43//43 112//112 42//42
f 43//43 13//13 76//76 112//112
f 112//112 76//76 29//29 75//75
f 42//42 112//112 75//75 12//12
f 3//3 40//40 113//113 44//44
f 40//40 11//11 77//77 113//113
f 113//113 77//77 29//29 76//76
f 44//44 113//113 76//76 13//13
f 1//1 39//39 114//114 45//45
f 39//39 11//11 78//78 114//114
f 114//114 78//78 30//30 80//80
f 45//45 114//114 80//80 14//14
f 3//3 47//47 115//115 40//40
f 47//47 15//15 79//79 115//115
f 115//115 79//79 30//30 78//78
f 40//40 115//115 78//78 11//11
f 4//4 46//46 116//116 48//48
f 46//46 14//14 80//80 116//116
f 116//116 80//80 30//30 79//79
f 48//48 116//116 79//79 15//15
f 1//1 51//51 117//117 49//49
f 51//51 17//17 81//81 117//117
f 117//117 81//81 31//31 83//83
f 49//49 117//117 83//83 16//16
f 6//6 53//53 118//118 52//52
f 53//53 18//18 82//82 118//118
f 118//118 82//82 31//31 81//81
f 52//52 118//118 81//81 17//17
f 7//7 50//50 119//119 54//54
f 50//50 16//16 83//83 119//119
f 119//119 83//83 31//31 82//82
f 54//54 119//119 82//82 18//18
f 1//1 49//49 120//120 55//55
f 49//49 16//16 84//84 120//120
f 120//120 84//84 32//32 86//86
f 55//55 120//120 86//86 19//19
f 7//7 57//57 121//121 50//50
f 57//57 20//20 85//85 121//121
f 121//121 85//85 32//32 84//84
f 50//50 121//121 84//84 16//16
f 10//10 56//56 122//122 58//58
f 56//56 19//19 86//86 122//122
f 122//122 86//86 32//32 85//85
f 58//58 122//122 85//85 20//20
f 1//1 55//55 123//123 41//41
f 55//55 19//19 87//87 123//123
f 123//123 87//87 33//33 90//90
f 41//41 123//123 90//90 12//12
f 19//19 56//56 124//124 87//87
f 56//56 10//10 62//62 124//124
f 124//124 62//62 22//22 88//88
f 87//87 124//124 88//88 33//33
f 33//33 88//88 125//125 89//89
f 88//88 22//22 61//61 125//125
f 125//125 61//61 9//9 60//60
f 89//89 125//125 60//60 21//21
f 12//12 90//90 126//126 42//42
f 90//90 33//33 89//89 126//126
f 126//126 89//89 21//21 59//59
f 42//42 126//126 59//59 2//2
f 1//1 45//45 127//127 51//51
f 45//45 14//14 91//91 127//127
f 127//127 91//91 34//34 94//94
f 51//51 127//127 94//94 17//17
f 14//14 46//46 128//128 91//91
f 46//46 4//4 63//63 128//128
f 128//128 63//63 23//23 92//92
f 91//91 128//128 92//92 34//34
f 34//34 92//92 129//129 93//93
f 92//92 23//23 64//64 129//129
f 129//129 64//64 5//5 65//65
f 93//93 129//129 65//65 24//24
f 17//17 94//94 130//130 52//52
f 94//94 34//34 93//93 130//130
f 130//130 93//93 24//24 66//66
f 52//52 130//130 66//66 6//6
f 2//2 59//59 131//131 43//43
f 59//59 21//21 95//95 131//131
f 131//131 95//95 35//35 98//98
f 43//43 131//131 98//98 13//13
f 21//21 60//60 132//132 95//95
f 60//60 9//9 70//70 132//132
f 132//132 70//70 26//26 96//96
f 95//95 132//132 96//96 35//35
f 35//35 96//96 133//133 97//97
f 96//96 26//26 69//69 133//133
f 133//133 69//69 8//8 68//68
f 97//97 133//133 68//68 25//25
f 13//13 98//98 134//134 44//44
f 98//98 35//35 97//97 134//134
f 134//134 97//97 25//25 67//67
f 44//44 134//134 67//67 3//3
f 3//3 67//67 135//135 47//47
f 67//67 25//25 99//99 135//135
f 135//135 99//99 36//36 102//102
f 47//47 135//135 102//102 15//15
f 25//25 68//68 136//136 99//99
f 68//68 8//8 72//72 136//136
f 136//136 72//72 27//27 100//100
f 99//99 136//136 100//100 36//36
f 36//36 100//100 137//137 101//101
f 100//100 27//27 71//71 137//137
f 137//137 71//71 5//5 64//64
f 101//101 137//137 64//64 23//23
f 15//15 102//102 138//138 48//48
f 102//102 36//36 101//101 138//138
f 138//138 101//101 23//23 63//63
f 48//48 138//138 63//63 4//4
f 5//5 71//71 139//139 65//65
f 71//71 27//27 103//103 139//139
f 139//139 103//103 37//37 106//106
f 65//65 139//139 106//106 24//24
f 27//27 72//72 140//140 103//103
f 72//72 8//8 74//74 140//140
f 140//140 74//74 28//28 104//104
f 103//103 140//140 104//104 37//37
f 37//37 104//104 141//141 105//105
f 104//104 28//28 73//73 141//141
f 141//141 73//73 7//7 54//54
f 105//105 141//141 54//54 18//18
f 24//24 106//106 142//142 66//66
f 106//106 37//37 105//105 142//142
f 142//142 105//105 18//18 53//53
f 66//66 142//142 53//53 6//6
f 7//7 73//73 143//143 57//57
f 73//73 28//28 107//107 143//143
f 143//143 107//107 38//38 110//110
f 57//57 143//143 110//110 20//20
f 28//28 74//74 144//144 107//107
f 74//74 8//8 69//69 144//144
f 144//144 69//69 26//26 108//108
f 107//107 144//144 108//108 38//38
f 38//38 108//108 145//145 109//109
f 108//108 26//26 70//70 145//145
f 145//145 70//70 9//9 61//61
f 109//109 145//145 61//61 22//22
f 20//20 110//110 146//146 58//58
f 110//110 38//38 109//109 146//146
f 146//146 109//109 22//22 62//62
f 58//58 146//146 62//62 10//10
